[Header]
FileType HTR
DataType HTRS
FileVersion 1
NumSegments 64
NumFrames 4
DataFrameRate 24
EulerRotationOrder ZYX
CalibrationUnits mm
RotationUnits Degrees
GlobalAxisofGravity Y
BoneLengthAxis Y
ScaleFactor 1.0
[SegmentNames&Hierarchy]
Hips	GLOBAL
Spine	Hips
Spine1	Spine
Spine2	Spine1
Neck	Spine2
Head	Neck
LeftEye	Head
RightEye	Head
LeftShoulder	Spine2
LeftArm	LeftShoulder
LeftForeArm	LeftArm
LeftHand	LeftForeArm
LeftHandThumb1	LeftHand
LeftHandThumb2	LeftHandThumb1
LeftHandThumb3	LeftHandThumb2
LeftHandThumb4	LeftHandThumb3
LeftHandIndex1	LeftHand
LeftHandIndex2	LeftHandIndex1
LeftHandIndex3	LeftHandIndex2
LeftHandIndex4	LeftHandIndex3
LeftHandMiddle1	LeftHand
LeftHandMiddle2	LeftHandMiddle1
LeftHandMiddle3	LeftHandMiddle2
LeftHandMiddle4	LeftHandMiddle3
LeftHandRing1	LeftHand
LeftHandRing2	LeftHandRing1
LeftHandRing3	LeftHandRing2
LeftHandRing4	LeftHandRing3
LeftHandPinky1	LeftHand
LeftHandPinky2	LeftHandPinky1
LeftHandPinky3	LeftHandPinky2
LeftHandPinky4	LeftHandPinky3
RightShoulder	Spine2
RightArm	RightShoulder
RightForeArm	RightArm
RightHand	RightForeArm
RightHandPinky1	RightHand
RightHandPinky2	RightHandPinky1
RightHandPinky3	RightHandPinky2
RightHandPinky4	RightHandPinky3
RightHandRing1	RightHand
RightHandRing2	RightHandRing1
RightHandRing3	RightHandRing2
RightHandRing4	RightHandRing3
RightHandMiddle1	RightHand
RightHandMiddle2	RightHandMiddle1
RightHandMiddle3	RightHandMiddle2
RightHandMiddle4	RightHandMiddle3
RightHandIndex1	RightHand
RightHandIndex2	RightHandIndex1
RightHandIndex3	RightHandIndex2
RightHandIndex4	RightHandIndex3
RightHandThumb1	RightHand
RightHandThumb2	RightHandThumb1
RightHandThumb3	RightHandThumb2
RightHandThumb4	RightHandThumb3
LeftUpLeg	Hips
LeftLeg	LeftUpLeg
LeftFoot	LeftLeg
LeftToeBase	LeftFoot
RightUpLeg	Hips
RightLeg	RightUpLeg
RightFoot	RightLeg
RightToeBase	RightFoot
[BasePosition]
Hips	0	0	0	0	0	0	1
Spine	0	0	0	0	0	0	1
Spine1	0	0	0	0	0	0	1
Spine2	0	0	0	0	0	0	1
Neck	0	0	0	0	0	0	1
Head	0	0	0	0	0	0	1
LeftEye	0	0	0	0	0	0	1
RightEye	0	0	0	0	0	0	1
LeftShoulder	0	0	0	0	0	0	1
LeftArm	0	0	0	0	0	0	1
LeftForeArm	0	0	0	0	0	0	1
LeftHand	0	0	0	0	0	0	1
LeftHandThumb1	0	0	0	0	0	0	1
LeftHandThumb2	0	0	0	0	0	0	1
LeftHandThumb3	0	0	0	0	0	0	1
LeftHandThumb4	0	0	0	0	0	0	1
LeftHandIndex1	0	0	0	0	0	0	1
LeftHandIndex2	0	0	0	0	0	0	1
LeftHandIndex3	0	0	0	0	0	0	1
LeftHandIndex4	0	0	0	0	0	0	1
LeftHandMiddle1	0	0	0	0	0	0	1
LeftHandMiddle2	0	0	0	0	0	0	1
LeftHandMiddle3	0	0	0	0	0	0	1
LeftHandMiddle4	0	0	0	0	0	0	1
LeftHandRing1	0	0	0	0	0	0	1
LeftHandRing2	0	0	0	0	0	0	1
LeftHandRing3	0	0	0	0	0	0	1
LeftHandRing4	0	0	0	0	0	0	1
LeftHandPinky1	0	0	0	0	0	0	1
LeftHandPinky2	0	0	0	0	0	0	1
LeftHandPinky3	0	0	0	0	0	0	1
LeftHandPinky4	0	0	0	0	0	0	1
RightShoulder	0	0	0	0	0	0	1
RightArm	0	0	0	0	0	0	1
RightForeArm	0	0	0	0	0	0	1
RightHand	0	0	0	0	0	0	1
RightHandPinky1	0	0	0	0	0	0	1
RightHandPinky2	0	0	0	0	0	0	1
RightHandPinky3	0	0	0	0	0	0	1
RightHandPinky4	0	0	0	0	0	0	1
RightHandRing1	0	0	0	0	0	0	1
RightHandRing2	0	0	0	0	0	0	1
RightHandRing3	0	0	0	0	0	0	1
RightHandRing4	0	0	0	0	0	0	1
RightHandMiddle1	0	0	0	0	0	0	1
RightHandMiddle2	0	0	0	0	0	0	1
RightHandMiddle3	0	0	0	0	0	0	1
RightHandMiddle4	0	0	0	0	0	0	1
RightHandIndex1	0	0	0	0	0	0	1
RightHandIndex2	0	0	0	0	0	0	1
RightHandIndex3	0	0	0	0	0	0	1
RightHandIndex4	0	0	0	0	0	0	1
RightHandThumb1	0	0	0	0	0	0	1
RightHandThumb2	0	0	0	0	0	0	1
RightHandThumb3	0	0	0	0	0	0	1
RightHandThumb4	0	0	0	0	0	0	1
LeftUpLeg	0	0	0	0	0	0	1
LeftLeg	0	0	0	0	0	0	1
LeftFoot	0	0	0	0	0	0	1
LeftToeBase	0	0	0	0	0	0	1
RightUpLeg	0	0	0	0	0	0	1
RightLeg	0	0	0	0	0	0	1
RightFoot	0	0	0	0	0	0	1
RightToeBase	0	0	0	0	0	0	1
[Hips]
89	-127.2594452	773.038269	994.4995728	-358.4091797	3.312604189	4.445353985	1.0
90	-124.1702728	791.5976563	1027.330444	-354.9002991	5.478233337	5.442415237	1.0
91	-121.1474915	819.5029297	1053.43689	-351.9815063	7.935461521	9.411792755	1.0
92	-122.16716	853.1314087	1077.189819	-350.340271	10.91784191	12.73228359	1.0
[Spine]
89	0	101.8159943	1.315000057	3.111880541	-6.931513786	2.007456303	1.0
90	0	101.8159943	1.315000057	2.999400139	-6.58406353	2.603209257	1.0
91	0	101.8159943	1.315000057	2.787293673	-6.463545799	2.09556675	1.0
92	0	101.8159943	1.315000057	2.653715611	-5.883840561	1.491297603	1.0
[Spine1]
89	0	100.8349991	-10.00800037	5.980563641	-14.2184906	4.473901272	1.0
90	0	100.8349991	-10.00800037	5.664260864	-13.37036991	6.304258347	1.0
91	0	100.8349991	-10.00800037	5.248956203	-13.05787659	6.282085896	1.0
92	0	100.8349991	-10.00800037	5.021905422	-11.9261961	5.960434437	1.0
[Spine2]
89	0	91	-13.73399925	5.980564594	-14.21848488	4.473899841	1.0
90	0	91	-13.73399925	5.664260387	-13.37037182	6.304258347	1.0
91	0	91	-13.73399925	5.248954296	-13.05787563	6.282083035	1.0
92	0	91	-13.73399925	5.021901131	-11.92619705	5.960419178	1.0
[Neck]
89	0	166.7169952	-25.16200066	-3.992806196	5.254456997	-8.002614021	1.0
90	0	166.7169952	-25.16200066	-3.896305084	5.525066376	-5.641223907	1.0
91	0	166.7169952	-25.16200066	-3.675989151	5.825209141	-2.473058462	1.0
92	0	166.7169952	-25.16200066	-3.402882576	5.343141079	0.8595933318	1.0
[Head]
89	0	96.17900085	16.84999847	-40.35884476	11.18467426	-12.63206291	1.0
90	0	96.17900085	16.84999847	-45.40717316	14.05153656	-12.15884495	1.0
91	0	96.17900085	16.84999847	-46.26029968	17.10105515	-10.31707573	1.0
92	0	96.17900085	16.84999847	-46.03805923	17.15896416	-7.880065441	1.0
[LeftEye]
89	30.6760006	64.09500122	92.83599854	0	0	0	1.0
90	30.6760006	64.09500122	92.83599854	0	0	0	1.0
91	30.6760006	64.09500122	92.83599854	0	0	0	1.0
92	30.6760006	64.09500122	92.83599854	0	0	0	1.0
[RightEye]
89	-30.6760006	64.09500122	92.83499908	0	0	0	1.0
90	-30.6760006	64.09500122	92.83499908	0	0	0	1.0
91	-30.6760006	64.09500122	92.83499908	0	0	0	1.0
92	-30.6760006	64.09500122	92.83499908	0	0	0	1.0
[LeftShoulder]
89	45.70400238	109.4599991	-26.28000069	-1.370258689	-13.52448463	7.425804138	1.0
90	45.70400238	109.4599991	-26.28000069	-2.03539443	-20.14974213	7.783005238	1.0
91	45.70400238	109.4599991	-26.28000069	-1.787399888	-26.88014603	5.451467991	1.0
92	45.70400238	109.4599991	-26.28000069	-0.5433805585	-27.32032204	2.131453991	1.0
[LeftArm]
89	105.923996	-5.24600029	-22.32099915	-76.79733276	-64.1503067	65.33761597	1.0
90	105.923996	-5.24600029	-22.32099915	-33.79088211	-67.27282715	14.48827934	1.0
91	105.923996	-5.24600029	-22.32099915	-11.54637814	-39.44469452	-22.13170624	1.0
92	105.923996	-5.24600029	-22.32099915	-9.327076912	-5.480685711	-37.21408081	1.0
[LeftForeArm]
89	278.414978	-0.0009999999311	0	-723.810791	-47.23039246	719.1486206	1.0
90	278.414978	-0.0009999999311	0	-721.6758423	-31.99245644	718.3676147	1.0
91	278.414978	-0.0009999999311	0	-720.2213135	-41.88290024	717.6795654	1.0
92	278.414978	-0.0009999999311	0	-716.8806763	-67.18959045	714.5769653	1.0
[LeftHand]
89	283.2879944	0	0	18.61327171	-23.23617935	1.502686381	1.0
90	283.2879944	0	0	29.31497955	-23.78547478	-5.264142513	1.0
91	283.2879944	0	0	13.70704937	-11.94847298	-11.91771126	1.0
92	283.2879944	0	0	-11.48267365	-2.097178698	-7.508841991	1.0
[LeftHandThumb1]
89	24.6609993	-15.75	26.8239994	5.766945362	-4.049151897	5.234989166	1.0
90	24.6609993	-15.75	26.8239994	9.494516373	-3.755707741	16.27684212	1.0
91	24.6609993	-15.75	26.8239994	11.6558485	-3.441623449	22.06042671	1.0
92	24.6609993	-15.75	26.8239994	11.62830639	-3.153788567	23.1207962	1.0
[LeftHandThumb2]
89	32.29800034	-18.64699936	18.64699936	2.406256437	32.01176453	-20.57505226	1.0
90	32.29800034	-18.64699936	18.64699936	2.673873663	26.28029442	-15.71455479	1.0
91	32.29800034	-18.64699936	18.64699936	3.785487652	21.96256256	-11.5621624	1.0
92	32.29800034	-18.64699936	18.64699936	5.410589218	19.35289001	-8.645278931	1.0
[LeftHandThumb3]
89	26.52600098	-15.31499958	15.31499958	3.601811159e-06	-8.438974328e-05	-6.943767221e-05	1.0
90	26.52600098	-15.31499958	15.31499958	3.601811159e-06	-8.438974328e-05	-6.943767221e-05	1.0
91	26.52600098	-15.31499958	15.31499958	3.601811159e-06	-8.438974328e-05	-6.943767221e-05	1.0
92	26.52600098	-15.31499958	15.31499958	3.601811159e-06	-8.438974328e-05	-6.943767221e-05	1.0
[LeftHandThumb4]
89	19.54599953	-11.28499985	11.28499985	0	0	0	1.0
90	19.54599953	-11.28499985	11.28499985	0	0	0	1.0
91	19.54599953	-11.28499985	11.28499985	0	0	0	1.0
92	19.54599953	-11.28499985	11.28499985	0	0	0	1.0
[LeftHandIndex1]
89	91.09299469	-5.170999527	22.60099792	0.8334428668	-4.571345806	-78.93820953	1.0
90	91.09299469	-5.170999527	22.60099792	-1.005643845	-6.187529087	-63.80467987	1.0
91	91.09299469	-5.170999527	22.60099792	-1.769167662	-6.651670933	-53.74306488	1.0
92	91.09299469	-5.170999527	22.60099792	-1.735997319	-6.200325966	-48.34473038	1.0
[LeftHandIndex2]
89	36.76399994	0	0	-0.2726301849	-8.120851517	-85.61411285	1.0
90	36.76399994	0	0	0.02005602047	-7.808525562	-80.8657608	1.0
91	36.76399994	0	0	-0.06852889061	-7.22773695	-75.34511566	1.0
92	36.76399994	0	0	-0.5859922767	-6.158286095	-66.96186829	1.0
[LeftHandIndex3]
89	28.83100128	0	0	-1.432096042e-06	3.907105395e-07	1.552835329e-06	1.0
90	28.83100128	0	0	-1.432096042e-06	3.907105395e-07	1.552835329e-06	1.0
91	28.83100128	0	0	-1.432096042e-06	3.907105395e-07	1.552835329e-06	1.0
92	28.83100128	0	0	-1.432096042e-06	3.907105395e-07	1.552835329e-06	1.0
[LeftHandIndex4]
89	23.92700005	0	0	0	0	0	1.0
90	23.92700005	0	0	0	0	0	1.0
91	23.92700005	0	0	0	0	0	1.0
92	23.92700005	0	0	0	0	0	1.0
[LeftHandMiddle1]
89	95.33399963	0	0	-0.6873749495	-6.891322613	-81.00910187	1.0
90	95.33399963	0	0	-1.416078448	-6.267916679	-69.7089386	1.0
91	95.33399963	0	0	-1.748965383	-5.56602478	-61.56620789	1.0
92	95.33399963	0	0	-1.850205541	-4.882557392	-56.31098175	1.0
[LeftHandMiddle2]
89	36.98199844	0	0	0.7742372751	-8.314893723	-83.04914856	1.0
90	36.98199844	0	0	0.6909356713	-7.799459934	-75.88633728	1.0
91	36.98199844	0	0	0.4702986181	-7.228528023	-69.52094269	1.0
92	36.98199844	0	0	0.01757927425	-6.445312023	-62.06318665	1.0
[LeftHandMiddle3]
89	29.50900078	0	0	0	-3.180554719e-15	-7.951386796e-16	1.0
90	29.50900078	0	0	0	-3.180554719e-15	-7.951386796e-16	1.0
91	29.50900078	0	0	0	-3.180554719e-15	-7.951386796e-16	1.0
92	29.50900078	0	0	0	-3.180554719e-15	-7.951386796e-16	1.0
[LeftHandMiddle4]
89	28.3390007	0	0	0	0	0	1.0
90	28.3390007	0	0	0	0	0	1.0
91	28.3390007	0	0	0	0	0	1.0
92	28.3390007	0	0	0	0	0	1.0
[LeftHandRing1]
89	91.04499817	-0.4390000105	-18.65100098	-3.399987459	-6.032632351	-88.09761047	1.0
90	91.04499817	-0.4390000105	-18.65100098	-2.860394478	-2.916913986	-77.87827301	1.0
91	91.04499817	-0.4390000105	-18.65100098	-2.714666367	-0.7880231142	-70.44783783	1.0
92	91.04499817	-0.4390000105	-18.65100098	-3.049828053	0.2950788736	-65.5244751	1.0
[LeftHandRing2]
89	31.54000092	0	0	6.281416893	-2.404277325	-81.44625092	1.0
90	31.54000092	0	0	5.70353651	-2.441084862	-78.57362366	1.0
91	31.54000092	0	0	5.21457386	-2.550241709	-74.55194855	1.0
92	31.54000092	0	0	4.669876575	-2.715199471	-67.94820404	1.0
[LeftHandRing3]
89	29.37700081	0	0	1.590277359e-15	3.180554719e-15	-7.951386796e-16	1.0
90	29.37700081	0	0	1.590277359e-15	3.180554719e-15	-7.951386796e-16	1.0
91	29.37700081	0	0	1.590277359e-15	3.180554719e-15	-7.951386796e-16	1.0
92	29.37700081	0	0	1.590277359e-15	3.180554719e-15	-7.951386796e-16	1.0
[LeftHandRing4]
89	26.47500038	0	0	0	0	0	1.0
90	26.47500038	0	0	0	0	0	1.0
91	26.47500038	0	0	0	0	0	1.0
92	26.47500038	0	0	0	0	0	1.0
[LeftHandPinky1]
89	80.77799988	-4.887000084	-38.06099701	-3.369356155	-7.208646297	-88.03026581	1.0
90	80.77799988	-4.887000084	-38.06099701	-3.263778925	-1.594013572	-76.00748444	1.0
91	80.77799988	-4.887000084	-38.06099701	-3.245875359	2.21709013	-67.79997253	1.0
92	80.77799988	-4.887000084	-38.06099701	-3.639414549	4.072164536	-62.94771576	1.0
[LeftHandPinky2]
89	36	0	0	10.22295475	-0.1339802742	-86.30502319	1.0
90	36	0	0	9.560029984	0.2917874753	-88.27622986	1.0
91	36	0	0	9.069627762	0.04763050377	-86.33717346	1.0
92	36	0	0	8.691337585	-0.6998890638	-81.00428772	1.0
[LeftHandPinky3]
89	21.14200211	0	0	3.226109357e-06	2.925280342e-06	-5.739977951e-06	1.0
90	21.14200211	0	0	3.226109357e-06	2.925280342e-06	-5.739977951e-06	1.0
91	21.14200211	0	0	3.226109357e-06	2.925280342e-06	-5.739977951e-06	1.0
92	21.14200211	0	0	3.226109357e-06	2.925280342e-06	-5.739977951e-06	1.0
[LeftHandPinky4]
89	19.75699997	0	0	0	0	0	1.0
90	19.75699997	0	0	0	0	0	1.0
91	19.75699997	0	0	0	0	0	1.0
92	19.75699997	0	0	0	0	0	1.0
[RightShoulder]
89	-45.70000076	109.4620056	-26.28000069	0.2154912055	-1.852654219	4.179210186	1.0
90	-45.70000076	109.4620056	-26.28000069	0.5461409688	-0.2403200716	4.868422508	1.0
91	-45.70000076	109.4620056	-26.28000069	0.8368099928	0.518838644	4.874519825	1.0
92	-45.70000076	109.4620056	-26.28000069	1.547887802	1.81029284	5.059929848	1.0
[RightArm]
89	-105.9280014	-5.248000145	-22.32099915	-360.6364441	-19.1112709	-301.8781433	1.0
90	-105.9280014	-5.248000145	-22.32099915	-357.3357544	-7.742021084	-298.006134	1.0
91	-105.9280014	-5.248000145	-22.32099915	-354.4594116	1.007739782	-296.750946	1.0
92	-105.9280014	-5.248000145	-22.32099915	-354.1838989	9.099633217	-294.9256897	1.0
[RightForeArm]
89	-278.414978	0	0	2.698271275	15.80695343	0.4049220681	1.0
90	-278.414978	0	0	2.040925026	9.636463165	0.07627353817	1.0
91	-278.414978	0	0	1.693876028	9.449584961	0.005138681736	1.0
92	-278.414978	0	0	1.371789336	9.213362694	-0.03939438239	1.0
[RightHand]
89	-283.2879944	0	0.0009999999311	3.12394309	21.33793259	15.21978283	1.0
90	-283.2879944	0	0.0009999999311	1.531197548	28.62667465	14.38233185	1.0
91	-283.2879944	0	0.0009999999311	-3.024679661	30.41123581	12.85307693	1.0
92	-283.2879944	0	0.0009999999311	-9.128293037	27.53048706	7.57816124	1.0
[RightHandPinky1]
89	-80.76699829	-4.885000229	-38.06000137	-0.8632351756	13.0879097	102.8280869	1.0
90	-80.76699829	-4.885000229	-38.06000137	-1.184724927	12.67882252	102.1411819	1.0
91	-80.76699829	-4.885000229	-38.06000137	-1.459076405	12.31853962	101.9761429	1.0
92	-80.76699829	-4.885000229	-38.06000137	-1.657038808	12.04209614	102.5411148	1.0
[RightHandPinky2]
89	-36	0	0.0009999999311	14.83819389	1.660583854	97.37365723	1.0
90	-36	0	0.0009999999311	14.5809679	2.088369608	94.66105652	1.0
91	-36	0	0.0009999999311	14.31067657	2.512251139	91.93373871	1.0
92	-36	0	0.0009999999311	14.04075432	2.914920807	89.29909515	1.0
[RightHandPinky3]
89	-21.14200211	0	0	-1.590277359e-15	0	-7.951386796e-16	1.0
90	-21.14200211	0	0	-1.590277359e-15	0	-7.951386796e-16	1.0
91	-21.14200211	0	0	-1.590277359e-15	0	-7.951386796e-16	1.0
92	-21.14200211	0	0	-1.590277359e-15	0	-7.951386796e-16	1.0
[RightHandPinky4]
89	-19.75699997	0	0	0	0	0	1.0
90	-19.75699997	0	0	0	0	0	1.0
91	-19.75699997	0	0	0	0	0	1.0
92	-19.75699997	0	0	0	0	0	1.0
[RightHandRing1]
89	-91.03599548	-0.4390000105	-18.65100098	-2.714635134	9.601278305	101.8096008	1.0
90	-91.03599548	-0.4390000105	-18.65100098	-2.909979343	9.366566658	101.1344376	1.0
91	-91.03599548	-0.4390000105	-18.65100098	-3.062134027	9.173182487	100.9880753	1.0
92	-91.03599548	-0.4390000105	-18.65100098	-3.148019314	9.046260834	101.5817795	1.0
[RightHandRing2]
89	-31.54000092	0	0	8.197219849	3.8206141	83.43491364	1.0
90	-31.54000092	0	0	7.885463238	3.935715675	80.34243774	1.0
91	-31.54000092	0	0	7.579553604	4.035185337	77.34470367	1.0
92	-31.54000092	0	0	7.296374321	4.115398884	74.59689331	1.0
[RightHandRing3]
89	-29.37700081	0	0	5.740008078e-07	-7.531911024e-07	-2.69121324e-06	1.0
90	-29.37700081	0	0	5.740008078e-07	-7.531911024e-07	-2.69121324e-06	1.0
91	-29.37700081	0	0	5.740008078e-07	-7.531911024e-07	-2.69121324e-06	1.0
92	-29.37700081	0	0	5.740008078e-07	-7.531911024e-07	-2.69121324e-06	1.0
[RightHandRing4]
89	-26.47500038	0	0	0	0	0	1.0
90	-26.47500038	0	0	0	0	0	1.0
91	-26.47500038	0	0	0	0	0	1.0
92	-26.47500038	0	0	0	0	0	1.0
[RightHandMiddle1]
89	-95.32500458	0	0	-0.3993219137	7.382992744	96.75927734	1.0
90	-95.32500458	0	0	-0.4631707072	7.321040154	96.08760071	1.0
91	-95.32500458	0	0	-0.4741258919	7.310566902	95.96984863	1.0
92	-95.32500458	0	0	-0.4114822745	7.372453213	96.6257782	1.0
[RightHandMiddle2]
89	-36.98199844	0	0	-0.3279780149	7.636371136	91.12467194	1.0
90	-36.98199844	0	0	-0.6066744328	7.380909443	87.60596466	1.0
91	-36.98199844	0	0	-0.8682075739	7.108353615	84.16634369	1.0
92	-36.98199844	0	0	-1.0995996	6.836605072	80.97415161	1.0
[RightHandMiddle3]
89	-29.50900078	0	0	1.856611448e-06	-0.002022909233	1.577868488e-06	1.0
90	-29.50900078	0	0	1.856611448e-06	-0.002022909233	1.577868488e-06	1.0
91	-29.50900078	0	0	1.856611448e-06	-0.002022909233	1.577868488e-06	1.0
92	-29.50900078	0	0	1.856611448e-06	-0.002022909233	1.577868488e-06	1.0
[RightHandMiddle4]
89	-28.3390007	0	0.0009999999311	0	0	0	1.0
90	-28.3390007	0	0.0009999999311	0	0	0	1.0
91	-28.3390007	0	0.0009999999311	0	0	0	1.0
92	-28.3390007	0	0.0009999999311	0	0	0	1.0
[RightHandIndex1]
89	-91.08300018	-5.167999744	22.60099792	3.107954979	1.847509742	101.5097198	1.0
90	-91.08300018	-5.167999744	22.60099792	3.112614155	1.891594172	100.7842102	1.0
91	-91.08300018	-5.167999744	22.60099792	3.169444084	1.973397851	100.6597366	1.0
92	-91.08300018	-5.167999744	22.60099792	3.296281338	2.104753256	101.3745956	1.0
[RightHandIndex2]
89	-36.76399994	0	0	-1.977689028	7.013245583	90.65322113	1.0
90	-36.76399994	0	0	-2.291292191	6.592832088	86.5810318	1.0
91	-36.76399994	0	0	-2.574462652	6.150715351	82.58558655	1.0
92	-36.76399994	0	0	-2.814367533	5.714604855	78.85861969	1.0
[RightHandIndex3]
89	-28.83100128	0	0	-3.180554719e-15	0	0	1.0
90	-28.83100128	0	0	-3.180554719e-15	0	0	1.0
91	-28.83100128	0	0	-3.180554719e-15	0	0	1.0
92	-28.83100128	0	0	-3.180554719e-15	0	0	1.0
[RightHandIndex4]
89	-23.92700005	0	0	0	0	0	1.0
90	-23.92700005	0	0	0	0	0	1.0
91	-23.92700005	0	0	0	0	0	1.0
92	-23.92700005	0	0	0	0	0	1.0
[RightHandThumb1]
89	-24.64799881	-15.72700024	26.82600021	19.63013649	32.73054504	-12.62922287	1.0
90	-24.64799881	-15.72700024	26.82600021	19.65320587	33.16057205	-13.37845325	1.0
91	-24.64799881	-15.72700024	26.82600021	19.51463699	33.33531189	-13.92407417	1.0
92	-24.64799881	-15.72700024	26.82600021	19.17166519	33.16646194	-14.17145061	1.0
[RightHandThumb2]
89	-32.29800034	-18.64699936	18.64699936	-2.40435338	-28.47590446	70.52381897	1.0
90	-32.29800034	-18.64699936	18.64699936	-1.673293114	-27.42271805	70.19290924	1.0
91	-32.29800034	-18.64699936	18.64699936	-0.9811502695	-26.33888435	69.507164	1.0
92	-32.29800034	-18.64699936	18.64699936	-0.3863543868	-25.24914551	68.37957001	1.0
[RightHandThumb3]
89	-26.52600098	-15.31399918	15.31399918	-3.81245151e-08	-0.00121095567	-0.001221005921	1.0
90	-26.52600098	-15.31399918	15.31399918	-3.81245151e-08	-0.00121095567	-0.001221005921	1.0
91	-26.52600098	-15.31399918	15.31399918	-3.81245151e-08	-0.00121095567	-0.001221005921	1.0
92	-26.52600098	-15.31399918	15.31399918	-3.81245151e-08	-0.00121095567	-0.001221005921	1.0
[RightHandThumb4]
89	-19.54599953	-11.28499985	11.28499985	0	0	0	1.0
90	-19.54599953	-11.28499985	11.28499985	0	0	0	1.0
91	-19.54599953	-11.28499985	11.28499985	0	0	0	1.0
92	-19.54599953	-11.28499985	11.28499985	0	0	0	1.0
[LeftUpLeg]
89	82.07800293	-67.51699829	-15.99599934	22.18714333	17.60496902	18.97738647	1.0
90	82.07800293	-67.51699829	-15.99599934	18.70108604	18.90390587	16.38851929	1.0
91	82.07800293	-67.51699829	-15.99599934	17.77603912	21.8391552	13.14026833	1.0
92	82.07800293	-67.51699829	-15.99599934	19.24289703	23.39622498	11.46280289	1.0
[LeftLeg]
89	0	-443.7049866	2.845999956	42.28112793	-3.907104015	8.542562485	1.0
90	0	-443.7049866	2.845999956	38.5968399	1.581319332	11.04982758	1.0
91	0	-443.7049866	2.845999956	31.83301926	5.092054844	9.235174179	1.0
92	0	-443.7049866	2.845999956	22.65360069	8.493104935	5.677803516	1.0
[LeftFoot]
89	0	-444.2789917	-29.8219986	-16.40551758	-0.4485193193	-4.37460947	1.0
90	0	-444.2789917	-29.8219986	-17.44043922	-0.19038333	-3.396807432	1.0
91	0	-444.2789917	-29.8219986	-18.03278923	1.153512001	-4.118314743	1.0
92	0	-444.2789917	-29.8219986	-15.42130566	1.406343222	-6.93488884	1.0
[LeftToeBase]
89	0	-87.28699493	107.1060028	-34.54800034	-0.3209465742	-0.476439178	1.0
90	0	-87.28699493	107.1060028	-32.22317886	-0.9915917516	-1.671980977	1.0
91	0	-87.28699493	107.1060028	-24.60337257	-0.4556852579	-1.034787655	1.0
92	0	-87.28699493	107.1060028	-17.49339294	-8.726647138e-06	4.474489742e-06	1.0
[RightUpLeg]
89	-82.07800293	-67.51699829	-15.99599934	-66.46273041	1.446543097	-9.863560677	1.0
90	-82.07800293	-67.51699829	-15.99599934	-66.45280457	-3.493255615	-10.47039032	1.0
91	-82.07800293	-67.51699829	-15.99599934	-64.56494904	-9.763156891	-13.2361536	1.0
92	-82.07800293	-67.51699829	-15.99599934	-60.08461761	-14.46247959	-15.38946152	1.0
[RightLeg]
89	0	-443.7049866	2.861999989	71.60529327	8.73855114	4.600672245	1.0
90	0	-443.7049866	2.861999989	71.20787048	7.644435406	5.975906372	1.0
91	0	-443.7049866	2.861999989	68.9274826	7.735111237	7.810389996	1.0
92	0	-443.7049866	2.861999989	64.98870087	8.823355675	8.571289063	1.0
[RightFoot]
89	0	-444.2770081	-29.83799934	-7.263348579	0.09539220482	11.4558363	1.0
90	0	-444.2770081	-29.83799934	-9.62348938	1.383740664	9.110122681	1.0
91	0	-444.2770081	-29.83799934	-10.77737713	2.391988277	7.124382496	1.0
92	0	-444.2770081	-29.83799934	-11.4703455	2.020853996	6.237218857	1.0
[RightToeBase]
89	0	-87.28699493	107.1060028	-3.271543741	-2.390909799e-07	-4.095135253e-08	1.0
90	0	-87.28699493	107.1060028	-2.363415003	-1.67264443e-06	8.441613204e-07	1.0
91	0	-87.28699493	107.1060028	-1.573977947	2.808475983e-06	2.992817826e-06	1.0
92	0	-87.28699493	107.1060028	-1.086919308	-2.957956895e-06	-1.041872082e-07	1.0
[EndOfFile]
